<mxfile host="app.diagrams.net" modified="2024-03-21T15:15:47.418Z" agent="Mozilla/5.0 (Windows NT 10.0; Win64; x64) AppleWebKit/537.36 (KHTML, like Gecko) Chrome/122.0.0.0 Safari/537.36" etag="fltNCN-I2NFh8JB7LsyO" version="24.0.4" type="device">
  <diagram name="Page-1" id="AHXh_uFk2i6KlO0Rz9xI">
    <mxGraphModel dx="1500" dy="1896" grid="1" gridSize="10" guides="1" tooltips="1" connect="1" arrows="1" fold="1" page="1" pageScale="1" pageWidth="850" pageHeight="1100" math="0" shadow="0">
      <root>
        <mxCell id="0" />
        <mxCell id="1" parent="0" />
        <mxCell id="FOE0HaEeTXa3aJ-Eg28X-74" value="" style="rounded=1;whiteSpace=wrap;html=1;" vertex="1" parent="1">
          <mxGeometry x="20" y="-20" width="820" height="720" as="geometry" />
        </mxCell>
        <mxCell id="FOE0HaEeTXa3aJ-Eg28X-24" style="edgeStyle=orthogonalEdgeStyle;rounded=0;orthogonalLoop=1;jettySize=auto;html=1;exitX=0.5;exitY=1;exitDx=0;exitDy=0;entryX=0.5;entryY=0;entryDx=0;entryDy=0;" edge="1" parent="1" source="FOE0HaEeTXa3aJ-Eg28X-2" target="FOE0HaEeTXa3aJ-Eg28X-3">
          <mxGeometry relative="1" as="geometry" />
        </mxCell>
        <mxCell id="FOE0HaEeTXa3aJ-Eg28X-25" style="edgeStyle=orthogonalEdgeStyle;rounded=0;orthogonalLoop=1;jettySize=auto;html=1;exitX=0.5;exitY=1;exitDx=0;exitDy=0;entryX=0.5;entryY=0;entryDx=0;entryDy=0;" edge="1" parent="1" source="FOE0HaEeTXa3aJ-Eg28X-2" target="FOE0HaEeTXa3aJ-Eg28X-4">
          <mxGeometry relative="1" as="geometry" />
        </mxCell>
        <mxCell id="FOE0HaEeTXa3aJ-Eg28X-2" value="&lt;font style=&quot;font-size: 14px;&quot;&gt;&lt;b&gt;LOGIN/SIGNUP AS CUSTOMER OR COMPANY&lt;/b&gt;&lt;/font&gt;" style="rounded=1;whiteSpace=wrap;html=1;" vertex="1" parent="1">
          <mxGeometry x="300" y="40" width="230" height="60" as="geometry" />
        </mxCell>
        <mxCell id="FOE0HaEeTXa3aJ-Eg28X-3" value="" style="rounded=1;whiteSpace=wrap;html=1;" vertex="1" parent="1">
          <mxGeometry x="35" y="230" width="190" height="390" as="geometry" />
        </mxCell>
        <mxCell id="FOE0HaEeTXa3aJ-Eg28X-4" value="" style="rounded=1;whiteSpace=wrap;html=1;" vertex="1" parent="1">
          <mxGeometry x="630" y="230" width="190" height="350" as="geometry" />
        </mxCell>
        <mxCell id="FOE0HaEeTXa3aJ-Eg28X-7" value="AS COMPANY" style="text;html=1;align=center;verticalAlign=middle;whiteSpace=wrap;rounded=0;fontStyle=1" vertex="1" parent="1">
          <mxGeometry x="275" y="130" width="60" height="30" as="geometry" />
        </mxCell>
        <mxCell id="FOE0HaEeTXa3aJ-Eg28X-8" value="AS CUSTOMER" style="text;html=1;align=center;verticalAlign=middle;whiteSpace=wrap;rounded=0;fontStyle=1" vertex="1" parent="1">
          <mxGeometry x="490" y="130" width="60" height="30" as="geometry" />
        </mxCell>
        <mxCell id="FOE0HaEeTXa3aJ-Eg28X-11" value="COMPONENTS" style="text;html=1;align=center;verticalAlign=middle;whiteSpace=wrap;rounded=0;fontStyle=1" vertex="1" parent="1">
          <mxGeometry x="95" y="240" width="60" height="30" as="geometry" />
        </mxCell>
        <mxCell id="FOE0HaEeTXa3aJ-Eg28X-12" value="COMPONENTS" style="text;html=1;align=center;verticalAlign=middle;whiteSpace=wrap;rounded=0;fontStyle=1" vertex="1" parent="1">
          <mxGeometry x="695" y="240" width="60" height="30" as="geometry" />
        </mxCell>
        <mxCell id="FOE0HaEeTXa3aJ-Eg28X-13" value="" style="image;html=1;image=img/lib/clip_art/computers/iMac_128x128.png" vertex="1" parent="1">
          <mxGeometry x="612.5" y="40" width="107.5" height="100" as="geometry" />
        </mxCell>
        <mxCell id="FOE0HaEeTXa3aJ-Eg28X-14" value="COMPANY PROFILE" style="rounded=1;whiteSpace=wrap;html=1;" vertex="1" parent="1">
          <mxGeometry x="55" y="280" width="140" height="30" as="geometry" />
        </mxCell>
        <mxCell id="FOE0HaEeTXa3aJ-Eg28X-15" value="COMPANY DASHBOARD" style="rounded=1;whiteSpace=wrap;html=1;" vertex="1" parent="1">
          <mxGeometry x="55" y="340" width="140" height="30" as="geometry" />
        </mxCell>
        <mxCell id="FOE0HaEeTXa3aJ-Eg28X-51" style="edgeStyle=orthogonalEdgeStyle;rounded=0;orthogonalLoop=1;jettySize=auto;html=1;exitX=0;exitY=0.5;exitDx=0;exitDy=0;" edge="1" parent="1" source="FOE0HaEeTXa3aJ-Eg28X-16" target="FOE0HaEeTXa3aJ-Eg28X-43">
          <mxGeometry relative="1" as="geometry" />
        </mxCell>
        <mxCell id="FOE0HaEeTXa3aJ-Eg28X-16" value="CUSTOMER ORDERS" style="rounded=1;whiteSpace=wrap;html=1;" vertex="1" parent="1">
          <mxGeometry x="655" y="520" width="140" height="30" as="geometry" />
        </mxCell>
        <mxCell id="FOE0HaEeTXa3aJ-Eg28X-47" style="edgeStyle=orthogonalEdgeStyle;rounded=0;orthogonalLoop=1;jettySize=auto;html=1;exitX=0;exitY=0.5;exitDx=0;exitDy=0;entryX=1;entryY=0.5;entryDx=0;entryDy=0;" edge="1" parent="1" source="FOE0HaEeTXa3aJ-Eg28X-17" target="FOE0HaEeTXa3aJ-Eg28X-39">
          <mxGeometry relative="1" as="geometry" />
        </mxCell>
        <mxCell id="FOE0HaEeTXa3aJ-Eg28X-48" style="edgeStyle=orthogonalEdgeStyle;rounded=0;orthogonalLoop=1;jettySize=auto;html=1;exitX=0;exitY=0.5;exitDx=0;exitDy=0;entryX=1;entryY=0.5;entryDx=0;entryDy=0;" edge="1" parent="1" source="FOE0HaEeTXa3aJ-Eg28X-17" target="FOE0HaEeTXa3aJ-Eg28X-38">
          <mxGeometry relative="1" as="geometry" />
        </mxCell>
        <mxCell id="FOE0HaEeTXa3aJ-Eg28X-17" value="CUSTOMER CART" style="rounded=1;whiteSpace=wrap;html=1;" vertex="1" parent="1">
          <mxGeometry x="655" y="460" width="140" height="30" as="geometry" />
        </mxCell>
        <mxCell id="FOE0HaEeTXa3aJ-Eg28X-46" style="edgeStyle=orthogonalEdgeStyle;rounded=0;orthogonalLoop=1;jettySize=auto;html=1;exitX=0;exitY=0.5;exitDx=0;exitDy=0;entryX=1;entryY=0.5;entryDx=0;entryDy=0;" edge="1" parent="1" source="FOE0HaEeTXa3aJ-Eg28X-18" target="FOE0HaEeTXa3aJ-Eg28X-40">
          <mxGeometry relative="1" as="geometry" />
        </mxCell>
        <mxCell id="FOE0HaEeTXa3aJ-Eg28X-18" value="OFFERS AND SALES" style="rounded=1;whiteSpace=wrap;html=1;" vertex="1" parent="1">
          <mxGeometry x="655" y="400" width="140" height="30" as="geometry" />
        </mxCell>
        <mxCell id="FOE0HaEeTXa3aJ-Eg28X-45" style="edgeStyle=orthogonalEdgeStyle;rounded=0;orthogonalLoop=1;jettySize=auto;html=1;exitX=0;exitY=0.5;exitDx=0;exitDy=0;entryX=1;entryY=0.5;entryDx=0;entryDy=0;" edge="1" parent="1" source="FOE0HaEeTXa3aJ-Eg28X-19" target="FOE0HaEeTXa3aJ-Eg28X-41">
          <mxGeometry relative="1" as="geometry" />
        </mxCell>
        <mxCell id="FOE0HaEeTXa3aJ-Eg28X-19" value="SALES PRODUCTS" style="rounded=1;whiteSpace=wrap;html=1;" vertex="1" parent="1">
          <mxGeometry x="655" y="340" width="140" height="30" as="geometry" />
        </mxCell>
        <mxCell id="FOE0HaEeTXa3aJ-Eg28X-20" value="CUSTOMER PROFILE" style="rounded=1;whiteSpace=wrap;html=1;" vertex="1" parent="1">
          <mxGeometry x="655" y="280" width="140" height="30" as="geometry" />
        </mxCell>
        <mxCell id="FOE0HaEeTXa3aJ-Eg28X-29" style="edgeStyle=orthogonalEdgeStyle;rounded=0;orthogonalLoop=1;jettySize=auto;html=1;exitX=1;exitY=0.5;exitDx=0;exitDy=0;entryX=0;entryY=0.5;entryDx=0;entryDy=0;" edge="1" parent="1" source="FOE0HaEeTXa3aJ-Eg28X-21" target="FOE0HaEeTXa3aJ-Eg28X-27">
          <mxGeometry relative="1" as="geometry" />
        </mxCell>
        <mxCell id="FOE0HaEeTXa3aJ-Eg28X-30" style="edgeStyle=orthogonalEdgeStyle;rounded=0;orthogonalLoop=1;jettySize=auto;html=1;exitX=1;exitY=0.5;exitDx=0;exitDy=0;entryX=0;entryY=0.5;entryDx=0;entryDy=0;" edge="1" parent="1" source="FOE0HaEeTXa3aJ-Eg28X-21" target="FOE0HaEeTXa3aJ-Eg28X-26">
          <mxGeometry relative="1" as="geometry" />
        </mxCell>
        <mxCell id="FOE0HaEeTXa3aJ-Eg28X-21" value="COMPANY INVENTORY" style="rounded=1;whiteSpace=wrap;html=1;" vertex="1" parent="1">
          <mxGeometry x="55" y="400" width="140" height="30" as="geometry" />
        </mxCell>
        <mxCell id="FOE0HaEeTXa3aJ-Eg28X-22" value="COMPANY ADD STOCK" style="rounded=1;whiteSpace=wrap;html=1;" vertex="1" parent="1">
          <mxGeometry x="55" y="460" width="140" height="30" as="geometry" />
        </mxCell>
        <mxCell id="FOE0HaEeTXa3aJ-Eg28X-34" style="edgeStyle=orthogonalEdgeStyle;rounded=0;orthogonalLoop=1;jettySize=auto;html=1;exitX=1;exitY=0.5;exitDx=0;exitDy=0;entryX=0;entryY=0.5;entryDx=0;entryDy=0;" edge="1" parent="1" source="FOE0HaEeTXa3aJ-Eg28X-23" target="FOE0HaEeTXa3aJ-Eg28X-32">
          <mxGeometry relative="1" as="geometry" />
        </mxCell>
        <mxCell id="FOE0HaEeTXa3aJ-Eg28X-35" style="edgeStyle=orthogonalEdgeStyle;rounded=0;orthogonalLoop=1;jettySize=auto;html=1;exitX=1;exitY=0.5;exitDx=0;exitDy=0;entryX=0;entryY=0.5;entryDx=0;entryDy=0;" edge="1" parent="1" source="FOE0HaEeTXa3aJ-Eg28X-23" target="FOE0HaEeTXa3aJ-Eg28X-31">
          <mxGeometry relative="1" as="geometry" />
        </mxCell>
        <mxCell id="FOE0HaEeTXa3aJ-Eg28X-23" value="COMPANY DEADSTOCK" style="rounded=1;whiteSpace=wrap;html=1;" vertex="1" parent="1">
          <mxGeometry x="55" y="520" width="140" height="30" as="geometry" />
        </mxCell>
        <mxCell id="FOE0HaEeTXa3aJ-Eg28X-26" value="UPDATE OR DELETE STOCK" style="rounded=1;whiteSpace=wrap;html=1;" vertex="1" parent="1">
          <mxGeometry x="285" y="420" width="140" height="30" as="geometry" />
        </mxCell>
        <mxCell id="FOE0HaEeTXa3aJ-Eg28X-27" value="ADD STOCK" style="rounded=1;whiteSpace=wrap;html=1;" vertex="1" parent="1">
          <mxGeometry x="285" y="380" width="140" height="30" as="geometry" />
        </mxCell>
        <mxCell id="FOE0HaEeTXa3aJ-Eg28X-31" value="ADD TO OFFERS/SALES" style="rounded=1;whiteSpace=wrap;html=1;" vertex="1" parent="1">
          <mxGeometry x="285" y="540" width="140" height="30" as="geometry" />
        </mxCell>
        <mxCell id="FOE0HaEeTXa3aJ-Eg28X-32" value="UPDATE PRICE" style="rounded=1;whiteSpace=wrap;html=1;" vertex="1" parent="1">
          <mxGeometry x="285" y="500" width="140" height="30" as="geometry" />
        </mxCell>
        <mxCell id="FOE0HaEeTXa3aJ-Eg28X-38" value="CHECKOUT" style="rounded=1;whiteSpace=wrap;html=1;" vertex="1" parent="1">
          <mxGeometry x="460" y="480" width="140" height="30" as="geometry" />
        </mxCell>
        <mxCell id="FOE0HaEeTXa3aJ-Eg28X-39" value="DELETE FROM CART" style="rounded=1;whiteSpace=wrap;html=1;" vertex="1" parent="1">
          <mxGeometry x="460" y="440" width="140" height="30" as="geometry" />
        </mxCell>
        <mxCell id="FOE0HaEeTXa3aJ-Eg28X-40" value="ADD TO CART" style="rounded=1;whiteSpace=wrap;html=1;" vertex="1" parent="1">
          <mxGeometry x="460" y="400" width="140" height="30" as="geometry" />
        </mxCell>
        <mxCell id="FOE0HaEeTXa3aJ-Eg28X-41" value="ADD TO CART" style="rounded=1;whiteSpace=wrap;html=1;" vertex="1" parent="1">
          <mxGeometry x="460" y="340" width="140" height="30" as="geometry" />
        </mxCell>
        <mxCell id="FOE0HaEeTXa3aJ-Eg28X-43" value="ADD REVIEW" style="rounded=1;whiteSpace=wrap;html=1;" vertex="1" parent="1">
          <mxGeometry x="460" y="520" width="140" height="30" as="geometry" />
        </mxCell>
        <mxCell id="FOE0HaEeTXa3aJ-Eg28X-52" value="" style="rounded=1;whiteSpace=wrap;html=1;" vertex="1" parent="1">
          <mxGeometry x="30" y="810" width="810" height="400" as="geometry" />
        </mxCell>
        <mxCell id="FOE0HaEeTXa3aJ-Eg28X-53" style="edgeStyle=orthogonalEdgeStyle;rounded=0;orthogonalLoop=1;jettySize=auto;html=1;exitX=0.25;exitY=1;exitDx=0;exitDy=0;entryX=0.066;entryY=0.006;entryDx=0;entryDy=0;entryPerimeter=0;" edge="1" parent="1" source="FOE0HaEeTXa3aJ-Eg28X-3" target="FOE0HaEeTXa3aJ-Eg28X-52">
          <mxGeometry relative="1" as="geometry" />
        </mxCell>
        <mxCell id="FOE0HaEeTXa3aJ-Eg28X-54" value="" style="endArrow=classic;html=1;rounded=0;exitX=0.171;exitY=-0.004;exitDx=0;exitDy=0;exitPerimeter=0;" edge="1" parent="1" source="FOE0HaEeTXa3aJ-Eg28X-52">
          <mxGeometry width="50" height="50" relative="1" as="geometry">
            <mxPoint x="170" y="720" as="sourcePoint" />
            <mxPoint x="170" y="620" as="targetPoint" />
          </mxGeometry>
        </mxCell>
        <mxCell id="FOE0HaEeTXa3aJ-Eg28X-55" style="edgeStyle=orthogonalEdgeStyle;rounded=0;orthogonalLoop=1;jettySize=auto;html=1;exitX=0.25;exitY=1;exitDx=0;exitDy=0;entryX=0.8;entryY=-0.009;entryDx=0;entryDy=0;entryPerimeter=0;" edge="1" parent="1" source="FOE0HaEeTXa3aJ-Eg28X-4" target="FOE0HaEeTXa3aJ-Eg28X-52">
          <mxGeometry relative="1" as="geometry" />
        </mxCell>
        <mxCell id="FOE0HaEeTXa3aJ-Eg28X-56" value="" style="endArrow=classic;html=1;rounded=0;entryX=0.559;entryY=0.998;entryDx=0;entryDy=0;entryPerimeter=0;exitX=0.896;exitY=0.003;exitDx=0;exitDy=0;exitPerimeter=0;" edge="1" parent="1" source="FOE0HaEeTXa3aJ-Eg28X-52">
          <mxGeometry width="50" height="50" relative="1" as="geometry">
            <mxPoint x="755" y="720" as="sourcePoint" />
            <mxPoint x="755" y="580" as="targetPoint" />
          </mxGeometry>
        </mxCell>
        <mxCell id="FOE0HaEeTXa3aJ-Eg28X-57" value="REQUEST" style="text;html=1;align=center;verticalAlign=middle;whiteSpace=wrap;rounded=0;rotation=-90;" vertex="1" parent="1">
          <mxGeometry x="35" y="730" width="60" height="30" as="geometry" />
        </mxCell>
        <mxCell id="FOE0HaEeTXa3aJ-Eg28X-58" value="REQUEST" style="text;html=1;align=center;verticalAlign=middle;whiteSpace=wrap;rounded=0;rotation=-90;" vertex="1" parent="1">
          <mxGeometry x="630" y="730" width="60" height="30" as="geometry" />
        </mxCell>
        <mxCell id="FOE0HaEeTXa3aJ-Eg28X-59" value="RESPONSE" style="text;html=1;align=center;verticalAlign=middle;whiteSpace=wrap;rounded=0;rotation=90;" vertex="1" parent="1">
          <mxGeometry x="750" y="730" width="60" height="30" as="geometry" />
        </mxCell>
        <mxCell id="FOE0HaEeTXa3aJ-Eg28X-60" value="RESPONSE" style="text;html=1;align=center;verticalAlign=middle;whiteSpace=wrap;rounded=0;rotation=90;" vertex="1" parent="1">
          <mxGeometry x="155" y="730" width="60" height="30" as="geometry" />
        </mxCell>
        <mxCell id="FOE0HaEeTXa3aJ-Eg28X-65" value="COMPANY SALES" style="rounded=1;whiteSpace=wrap;html=1;" vertex="1" parent="1">
          <mxGeometry x="55" y="580" width="140" height="30" as="geometry" />
        </mxCell>
        <mxCell id="FOE0HaEeTXa3aJ-Eg28X-66" value="&lt;font style=&quot;font-size: 26px;&quot;&gt;&lt;b style=&quot;font-size: 26px;&quot;&gt;&lt;u style=&quot;font-size: 26px;&quot;&gt;BACK-END&lt;/u&gt;&lt;/b&gt;&lt;/font&gt;" style="text;html=1;align=center;verticalAlign=middle;whiteSpace=wrap;rounded=0;fontSize=26;" vertex="1" parent="1">
          <mxGeometry x="90" y="840" width="180" height="30" as="geometry" />
        </mxCell>
        <mxCell id="FOE0HaEeTXa3aJ-Eg28X-68" value="" style="rounded=0;whiteSpace=wrap;html=1;" vertex="1" parent="1">
          <mxGeometry x="330" y="832" width="410" height="98" as="geometry" />
        </mxCell>
        <mxCell id="FOE0HaEeTXa3aJ-Eg28X-69" value="" style="image;points=[];aspect=fixed;html=1;align=center;shadow=0;dashed=0;image=img/lib/allied_telesis/computer_and_terminals/Server_Desktop.svg;" vertex="1" parent="1">
          <mxGeometry x="360" y="854" width="42.599999999999994" height="54" as="geometry" />
        </mxCell>
        <mxCell id="FOE0HaEeTXa3aJ-Eg28X-70" value="BACK-END SERVER" style="text;html=1;align=center;verticalAlign=middle;whiteSpace=wrap;rounded=0;fontStyle=1;fontSize=23;" vertex="1" parent="1">
          <mxGeometry x="440" y="866" width="270" height="30" as="geometry" />
        </mxCell>
        <mxCell id="FOE0HaEeTXa3aJ-Eg28X-71" value="" style="endArrow=classic;startArrow=classic;html=1;rounded=0;exitX=0.593;exitY=0.488;exitDx=0;exitDy=0;exitPerimeter=0;" edge="1" parent="1" source="FOE0HaEeTXa3aJ-Eg28X-52">
          <mxGeometry width="50" height="50" relative="1" as="geometry">
            <mxPoint x="510" y="990" as="sourcePoint" />
            <mxPoint x="510" y="945" as="targetPoint" />
            <Array as="points">
              <mxPoint x="510" y="960" />
            </Array>
          </mxGeometry>
        </mxCell>
        <mxCell id="FOE0HaEeTXa3aJ-Eg28X-72" value="" style="rounded=0;whiteSpace=wrap;html=1;" vertex="1" parent="1">
          <mxGeometry x="70" y="1020" width="720" height="150" as="geometry" />
        </mxCell>
        <mxCell id="FOE0HaEeTXa3aJ-Eg28X-73" value="" style="verticalLabelPosition=bottom;html=1;verticalAlign=top;align=center;strokeColor=none;fillColor=#00BEF2;shape=mxgraph.azure.mysql_database;" vertex="1" parent="1">
          <mxGeometry x="82.5" y="1080" width="37.5" height="50" as="geometry" />
        </mxCell>
        <mxCell id="FOE0HaEeTXa3aJ-Eg28X-75" value="FRONT-END" style="text;html=1;align=center;verticalAlign=middle;whiteSpace=wrap;rounded=0;fontStyle=5;fontSize=26;" vertex="1" parent="1">
          <mxGeometry x="90" width="220" height="30" as="geometry" />
        </mxCell>
        <mxCell id="FOE0HaEeTXa3aJ-Eg28X-77" value="" style="shape=image;html=1;verticalAlign=top;verticalLabelPosition=bottom;labelBackgroundColor=#ffffff;imageAspect=0;aspect=fixed;image=https://cdn1.iconfinder.com/data/icons/unicons-line-vol-5/24/react-128.png" vertex="1" parent="1">
          <mxGeometry x="121" y="40" width="128" height="128" as="geometry" />
        </mxCell>
        <mxCell id="FOE0HaEeTXa3aJ-Eg28X-78" value="" style="shape=image;verticalLabelPosition=bottom;labelBackgroundColor=default;verticalAlign=top;aspect=fixed;imageAspect=0;image=https://miro.medium.com/v2/resize:fit:800/1*bc9pmTiyKR0WNPka2w3e0Q.png;" vertex="1" parent="1">
          <mxGeometry x="120" y="880" width="120" height="120" as="geometry" />
        </mxCell>
        <mxCell id="FOE0HaEeTXa3aJ-Eg28X-79" value="DATABASE" style="text;html=1;align=center;verticalAlign=middle;whiteSpace=wrap;rounded=0;fontStyle=1;fontSize=22;" vertex="1" parent="1">
          <mxGeometry x="140" y="1090" width="120" height="30" as="geometry" />
        </mxCell>
        <mxCell id="FOE0HaEeTXa3aJ-Eg28X-80" value="&lt;b&gt;&lt;font style=&quot;font-size: 23px;&quot;&gt;TABLES&lt;/font&gt;&lt;/b&gt;" style="text;html=1;align=center;verticalAlign=middle;whiteSpace=wrap;rounded=0;" vertex="1" parent="1">
          <mxGeometry x="470" y="1030" width="60" height="30" as="geometry" />
        </mxCell>
        <mxCell id="FOE0HaEeTXa3aJ-Eg28X-81" value="PURCHASEFINAL" style="rounded=1;whiteSpace=wrap;html=1;" vertex="1" parent="1">
          <mxGeometry x="270" y="1060" width="120" height="30" as="geometry" />
        </mxCell>
        <mxCell id="FOE0HaEeTXa3aJ-Eg28X-82" value="SALES" style="rounded=1;whiteSpace=wrap;html=1;" vertex="1" parent="1">
          <mxGeometry x="410" y="1060" width="105" height="30" as="geometry" />
        </mxCell>
        <mxCell id="FOE0HaEeTXa3aJ-Eg28X-83" value="PURCHASEINVOICE" style="rounded=1;whiteSpace=wrap;html=1;" vertex="1" parent="1">
          <mxGeometry x="270" y="1110" width="120" height="30" as="geometry" />
        </mxCell>
        <mxCell id="FOE0HaEeTXa3aJ-Eg28X-84" value="CITY" style="rounded=1;whiteSpace=wrap;html=1;" vertex="1" parent="1">
          <mxGeometry x="540" y="1110" width="105" height="30" as="geometry" />
        </mxCell>
        <mxCell id="FOE0HaEeTXa3aJ-Eg28X-85" value="CART" style="rounded=1;whiteSpace=wrap;html=1;" vertex="1" parent="1">
          <mxGeometry x="540" y="1060" width="105" height="30" as="geometry" />
        </mxCell>
        <mxCell id="FOE0HaEeTXa3aJ-Eg28X-86" value="CUSTOMER" style="rounded=1;whiteSpace=wrap;html=1;" vertex="1" parent="1">
          <mxGeometry x="672.5" y="1110" width="105" height="30" as="geometry" />
        </mxCell>
        <mxCell id="FOE0HaEeTXa3aJ-Eg28X-87" value="COMPANY" style="rounded=1;whiteSpace=wrap;html=1;" vertex="1" parent="1">
          <mxGeometry x="672.5" y="1060" width="105" height="30" as="geometry" />
        </mxCell>
        <mxCell id="FOE0HaEeTXa3aJ-Eg28X-89" value="ORDERS" style="rounded=1;whiteSpace=wrap;html=1;" vertex="1" parent="1">
          <mxGeometry x="410" y="1110" width="105" height="30" as="geometry" />
        </mxCell>
      </root>
    </mxGraphModel>
  </diagram>
</mxfile>
